<svg xmlns="http://www.w3.org/2000/svg" viewBox="0 0 400 300" width="400" height="300"><rect width="400" height="300" fill="#f7f2e6"/><circle cx="200" cy="150" r="108" fill="#e9e2d4"/><path d="M200 104c32 0 58 32 58 70 0 34-26 56-58 56s-58-22-58-56c0-38 26-70 58-70z" fill="#efe8dc" stroke="#c3b7a2" stroke-width="5"/><path d="M200 106c-15 0-26 32-26 70 0 30 11 52 26 52" stroke="#c3b7a2" stroke-width="5" fill="none"/><path d="M200 106c15 0 26 32 26 70 0 30-11 52-26 52" stroke="#c3b7a2" stroke-width="5" fill="none"/><path d="M158 144c-8 20-10 40-4 58M242 144c8 20 10 40 4 58" stroke="#cfc4b1" stroke-width="5" fill="none"/><path d="M200 106c-3-16 1-27 7-33 5 10 10 13 18 15" stroke="#a89a80" stroke-width="10" stroke-linecap="round" fill="none"/></svg>